<svg width="483" height="88" viewBox="0 0 483 88" fill="none" xmlns="http://www.w3.org/2000/svg">
<path d="M261.915 19.5674H227.957L236.748 0.151733H254.924C259.722 0.151733 263.28 4.04491 262.853 8.8423L261.915 19.559V19.5674Z" fill="#A3D3E7"/>
<path d="M280.561 27.8645L281.289 19.5675H261.873L261.145 27.8645C260.852 31.2218 257.88 33.9513 254.522 33.9513H241.21H241.194H221.786C221.786 34.0099 221.786 34.0684 221.778 34.1354L219.333 62.024C219.04 65.3729 216.076 68.094 212.711 68.094H206.339L197.682 87.5179H211.011C221.393 87.5179 230.87 81.2889 235.634 72.3806C243.889 80.9205 255.293 86.4631 268.354 87.3757L276.944 68.094H273.913C262.049 68.094 252.036 62.2835 246.317 53.3586H252.831C266.888 53.3586 279.338 41.9218 280.569 27.8561L280.561 27.8645Z" fill="#02447C"/>
<path d="M475.73 40.9421V65.1803H468.814V72.0708H477.48C480.318 72.0708 482.62 69.7684 482.62 66.9301V40.9421H475.73Z" fill="#02447C"/>
<path d="M463.624 27.7388H456.733V61.0275H463.624V27.7388Z" fill="#02447C"/>
<path d="M444.652 54.3632H361.798V46.0829C361.798 43.2446 359.496 40.9422 356.658 40.9422H348.084V47.8327H354.908V54.3548H341.177V61.2453H451.542V40.9338H444.652V54.3548V54.3632Z" fill="#02447C"/>
<path d="M451.5 65.2556H444.685V72.0708H451.5V65.2556Z" fill="#02447C"/>
<path d="M441.194 65.2556H434.379V72.0708H441.194V65.2556Z" fill="#02447C"/>
<path d="M329.096 65.1803H322.18V72.0708H330.846C333.684 72.0708 335.986 69.7684 335.986 66.9301V40.9421H329.096V65.1803Z" fill="#02447C"/>
<path d="M316.905 27.7388H310.09V34.5539H316.905V27.7388Z" fill="#02447C"/>
<path d="M310.107 65.1803H303.191V72.0708H311.857C314.695 72.0708 316.997 69.7684 316.997 66.9301V40.9421H310.107V65.1803Z" fill="#02447C"/>
<path d="M41.9805 32.0591H34.5876V67.7591H41.9805V32.0591Z" fill="#02447C"/>
<path d="M70.1871 32.0591H53.3167V67.7591H70.1871C73.2346 67.7591 75.6961 65.2892 75.6961 62.2501V37.5765C75.6961 34.5289 73.2262 32.0675 70.1871 32.0675V32.0591ZM68.3116 60.3663H60.7011V39.4436H68.3116V60.3663Z" fill="#02447C"/>
<path d="M87.0407 32.0591V39.4436V46.2085V53.6013V60.3663V67.7591H94.4252H108.817V60.3663H94.4252V53.6013H108.817V46.2085H94.4252V39.4436H108.817V32.0591H94.4252H87.0407Z" fill="#02447C"/>
<path d="M176.14 39.4436V37.5682C176.14 34.5206 173.67 32.0591 170.631 32.0591H159.881C156.833 32.0591 154.372 34.529 154.372 37.5682V48.0923C154.372 51.1398 156.842 53.6013 159.881 53.6013H168.755V60.3663H154.372V62.2417C154.372 65.2892 156.842 67.7507 159.881 67.7507H170.631C173.678 67.7507 176.14 65.2809 176.14 62.2417V51.7175C176.14 48.6699 173.67 46.2085 170.631 46.2085H161.756V39.4436H176.14Z" fill="#02447C"/>
<path d="M22.1462 49.4654V37.5682C22.1462 34.5206 19.6763 32.0591 16.6371 32.0591H0.369507V67.7591H7.76235V53.6013H10.6257L15.8585 67.7591H23.2513L18.0186 53.6013C20.3042 53.6013 22.1545 51.751 22.1545 49.4654H22.1462ZM14.7533 46.2085H7.75398V39.4436H14.7533V46.2085Z" fill="#02447C"/>
<path d="M141.93 49.4654V37.5682C141.93 34.5206 139.46 32.0591 136.421 32.0591H120.154V67.7591H127.547V53.6013H130.41L135.643 67.7591H143.035L137.803 53.6013C140.088 53.6013 141.939 51.751 141.939 49.4654H141.93ZM134.537 46.2085H127.538V39.4436H134.537V46.2085Z" fill="#02447C"/>
</svg>
